<svg xmlns="http://www.w3.org/2000/svg" width="29.838" height="27.918" viewBox="0 0 29.838 27.918">
  <g id="home" transform="translate(0.237 495.577)">
    <path id="Tracé_25" data-name="Tracé 25" d="M13.972-495.543a4.785,4.785,0,0,0-1.357.483c-.454.227-.606.373-6.62,6.381-6.7,6.69-6.294,6.247-6.189,6.8a1.065,1.065,0,0,0,.7.693c.4.076.588-.012,1.112-.512l.489-.472v6.049c0,6.632-.006,6.48.349,7.092A3.378,3.378,0,0,0,3.5-467.986c.611.349.076.338,11.365.32l10.323-.017.4-.169a3.219,3.219,0,0,0,1.316-1.164c.355-.629.349-.46.349-7.1v-6.049l.489.472c.524.5.71.588,1.112.512a1.065,1.065,0,0,0,.7-.693c.1-.553.5-.111-6.16-6.771S17.046-495.031,16-495.38a3.5,3.5,0,0,0-1.141-.192A5.526,5.526,0,0,0,13.972-495.543Zm1.322,1.9a2.905,2.905,0,0,1,.611.239c.157.087,2.055,1.939,4.879,4.757l4.611,4.606v6.929c0,6.48-.006,6.94-.1,7.127a1.019,1.019,0,0,1-.262.32c-.163.116-.239.122-2.929.14l-2.76.017v-3.814c0-2.562-.023-3.913-.064-4.122a3.006,3.006,0,0,0-2.253-2.253,41.849,41.849,0,0,0-4.681,0,3.006,3.006,0,0,0-2.253,2.253c-.041.21-.064,1.56-.064,4.116v3.814H7.334c-3,0-2.964.006-3.231-.4l-.134-.2v-13.927l4.617-4.606c2.83-2.83,4.71-4.67,4.873-4.757A2.458,2.458,0,0,1,15.293-493.645Zm1.525,15.831a.888.888,0,0,1,.547.524c.1.215.111.472.111,4v3.773h-5.59v-3.755a24.476,24.476,0,0,1,.087-3.971.888.888,0,0,1,.524-.547c.21-.1.413-.111,2.172-.111A9.055,9.055,0,0,1,16.819-477.814Z" transform="translate(0)" 
    fill="#3b3b3b"/>
  </g>
</svg>
