<svg xmlns="http://www.w3.org/2000/svg" width="30.404" height="28.452" viewBox="0 0 30.404 28.452" class="ionicon">
  <g id="home-_1_" transform="translate(0.237 495.577)">
    <path id="Tracé_19" data-name="Tracé 19" d="M14.241-495.542a4.875,4.875,0,0,0-1.382.492c-.463.231-.617.38-6.746,6.5-6.823,6.817-6.413,6.366-6.307,6.929a1.037,1.037,0,0,0,.7.7c.421.083.611,0,1.145-.516l.5-.481v6.164c0,6.757-.006,6.6.356,7.226A3.138,3.138,0,0,0,3.55-467.48c.575.332.807.356,3.631.356,2.788,0,2.818-.006,2.966-.326.053-.113.071-1.311.071-4.746,0-3.121.024-4.693.065-4.906a3.063,3.063,0,0,1,2.3-2.3,42.646,42.646,0,0,1,4.77,0,3.063,3.063,0,0,1,2.3,2.3c.042.214.065,1.786.065,4.906,0,3.435.018,4.633.071,4.746.148.32.178.326,2.966.326,2.824,0,3.055-.024,3.631-.356a3.138,3.138,0,0,0,1.044-1.044c.362-.629.356-.469.356-7.226v-6.164l.5.481c.534.51.724.6,1.133.522a1.086,1.086,0,0,0,.712-.706c.107-.564.51-.113-6.277-6.9s-6.473-6.5-7.535-6.858a3.562,3.562,0,0,0-1.163-.2A5.637,5.637,0,0,0,14.241-495.542Z" 
    transform="translate(0 0)" 
    fill="#2F79E8"
            style="stroke:none;"

    />
  </g>
</svg>
